<svg width="22" height="23" viewBox="0 0 22 23" fill="none" xmlns="http://www.w3.org/2000/svg">
<path fill-rule="evenodd" clip-rule="evenodd" d="M3 10.2156C3.55228 10.2156 4 10.6633 4 11.2156V20.2156H18V11.2156C18 10.6633 18.4477 10.2156 19 10.2156C19.5523 10.2156 20 10.6633 20 11.2156V21.2156C20 21.7679 19.5523 22.2156 19 22.2156H3C2.44772 22.2156 2 21.7679 2 21.2156V11.2156C2 10.6633 2.44772 10.2156 3 10.2156Z" fill="#111113"/>
<path fill-rule="evenodd" clip-rule="evenodd" d="M0 6.21558C0 5.66329 0.447715 5.21558 1 5.21558H21C21.5523 5.21558 22 5.66329 22 6.21558V11.2156C22 11.7679 21.5523 12.2156 21 12.2156H1C0.447715 12.2156 0 11.7679 0 11.2156V6.21558ZM2 7.21558V10.2156H20V7.21558H2Z" fill="#111113"/>
<path fill-rule="evenodd" clip-rule="evenodd" d="M11 5.21558C11.5523 5.21558 12 5.66329 12 6.21558V21.2156C12 21.7679 11.5523 22.2156 11 22.2156C10.4477 22.2156 10 21.7679 10 21.2156V6.21558C10 5.66329 10.4477 5.21558 11 5.21558Z" fill="#111113"/>
<path fill-rule="evenodd" clip-rule="evenodd" d="M6.5 2.21558C6.10218 2.21558 5.72064 2.37361 5.43934 2.65492C5.15804 2.93622 5 3.31775 5 3.71558C5 4.1134 5.15804 4.49493 5.43934 4.77624C5.72064 5.05754 6.10218 5.21558 6.5 5.21558H9.65402C9.53195 4.89619 9.37741 4.54499 9.18628 4.19749C8.55732 3.05392 7.6939 2.21558 6.5 2.21558ZM11 6.21558C11.9806 6.01946 11.9805 6.01912 11.9804 6.01876L11.9799 6.01595L11.9788 6.01061L11.9754 5.99451C11.9727 5.98141 11.9688 5.96362 11.9639 5.94146C11.954 5.89715 11.9396 5.83523 11.9203 5.7582C11.8819 5.60434 11.8237 5.389 11.7424 5.13243C11.581 4.62289 11.3233 3.93292 10.9387 3.23366C10.1927 1.87723 8.8061 0.215576 6.5 0.215576C5.57174 0.215576 4.6815 0.584325 4.02513 1.2407C3.36875 1.89708 3 2.78732 3 3.71558C3 4.64383 3.36875 5.53407 4.02513 6.19045C4.6815 6.84683 5.57174 7.21558 6.5 7.21558H11C11.2996 7.21558 11.5834 7.08125 11.7733 6.84957C11.9633 6.61788 12.0392 6.31253 11.9804 6.01876L11 6.21558Z" fill="#111113"/>
<path fill-rule="evenodd" clip-rule="evenodd" d="M11.0613 3.23366C11.8073 1.87723 13.1939 0.215576 15.5 0.215576C16.4283 0.215576 17.3185 0.584325 17.9749 1.2407C18.6313 1.89708 19 2.78732 19 3.71558C19 4.64383 18.6313 5.53407 17.9749 6.19045C17.3185 6.84683 16.4283 7.21558 15.5 7.21558H11C10.7004 7.21558 10.4166 7.08125 10.2267 6.84957C10.0367 6.61788 9.96066 6.31324 10.0194 6.01946L11 6.21558C10.0194 6.01946 10.0193 6.01982 10.0194 6.01946L10.0197 6.01794L10.0201 6.01595L10.0212 6.01061L10.0246 5.99451C10.0273 5.98141 10.0312 5.96362 10.0361 5.94146C10.046 5.89715 10.0604 5.83523 10.0797 5.7582C10.1181 5.60434 10.1763 5.389 10.2576 5.13243C10.419 4.62289 10.6767 3.93292 11.0613 3.23366ZM12.346 5.21558H15.5C15.8978 5.21558 16.2794 5.05754 16.5607 4.77624C16.842 4.49493 17 4.1134 17 3.71558C17 3.31775 16.842 2.93622 16.5607 2.65492C16.2794 2.37361 15.8978 2.21558 15.5 2.21558C14.3061 2.21558 13.4427 3.05392 12.8137 4.19749C12.6226 4.54499 12.4681 4.89619 12.346 5.21558ZM11.9802 6.41338C11.9802 6.4137 11.9802 6.41364 11.9802 6.41338V6.41338Z" fill="#111113"/>
</svg>
