<svg width="20" height="18" viewBox="0 0 20 18" fill="none" xmlns="http://www.w3.org/2000/svg">
<path fill-rule="evenodd" clip-rule="evenodd" d="M5.10573 2.36841C3.74037 2.57555 2.49967 3.7224 2.49967 5.85703C2.49967 6.89465 2.93316 8.03198 3.67251 9.19973C4.40645 10.359 5.39912 11.4811 6.41472 12.4712C7.42722 13.4582 8.44305 14.2953 9.20738 14.8864C9.52088 15.1288 9.79095 15.329 9.99967 15.4803C10.2084 15.329 10.4785 15.1288 10.792 14.8864C11.5563 14.2953 12.5721 13.4582 13.5846 12.4712C14.6002 11.4811 15.5929 10.359 16.3268 9.19973C17.0662 8.03198 17.4997 6.89465 17.4997 5.85703C17.4997 3.7224 16.259 2.57555 14.8936 2.36841C13.5071 2.15805 11.7581 2.88786 10.7568 5.0649C10.6208 5.36057 10.3251 5.55002 9.99967 5.55002C9.67424 5.55002 9.37857 5.36057 9.24258 5.0649C8.24127 2.88786 6.49226 2.15805 5.10573 2.36841ZM9.99967 16.5L10.4647 17.1915C10.1835 17.3806 9.81581 17.3806 9.5346 17.1915L9.99967 16.5ZM9.99968 3.07079C8.65372 1.22836 6.68443 0.443159 4.85574 0.720598C2.62261 1.0594 0.833008 2.9534 0.833008 5.85703C0.833008 7.33853 1.44119 8.79114 2.26434 10.0913C3.09289 11.3999 4.18356 12.6237 5.2513 13.6646C6.32213 14.7085 7.38964 15.5875 8.1878 16.2048C8.58756 16.5139 8.92144 16.7587 9.15658 16.927C9.27419 17.0112 9.36721 17.0763 9.43155 17.1209C9.46373 17.1432 9.48874 17.1603 9.50609 17.1722L9.52629 17.1859L9.53195 17.1897L9.5346 17.1915C9.5346 17.1915 9.5346 17.1915 9.99967 16.5C10.4647 17.1915 10.4647 17.1915 10.4647 17.1915L10.4674 17.1897L10.4731 17.1859L10.4933 17.1722C10.5106 17.1603 10.5356 17.1432 10.5678 17.1209C10.6321 17.0763 10.7252 17.0112 10.8428 16.927C11.0779 16.7587 11.4118 16.5139 11.8115 16.2048C12.6097 15.5875 13.6772 14.7085 14.7481 13.6646C15.8158 12.6237 16.9065 11.3999 17.735 10.0913C18.5582 8.79114 19.1663 7.33853 19.1663 5.85703C19.1663 2.9534 17.3767 1.0594 15.1436 0.720598C13.3149 0.443159 11.3456 1.22836 9.99968 3.07079Z" fill="#111113"/>
</svg>
