<svg width="22" height="23" viewBox="0 0 22 23" fill="none" xmlns="http://www.w3.org/2000/svg">
<path fill-rule="evenodd" clip-rule="evenodd" d="M11 2.21558C6.02944 2.21558 2 6.24501 2 11.2156C2 16.1861 6.02944 20.2156 11 20.2156C15.9706 20.2156 20 16.1861 20 11.2156C20 6.24501 15.9706 2.21558 11 2.21558ZM0 11.2156C0 5.14044 4.92487 0.215576 11 0.215576C17.0751 0.215576 22 5.14044 22 11.2156C22 17.2907 17.0751 22.2156 11 22.2156C4.92487 22.2156 0 17.2907 0 11.2156Z" fill="#111113"/>
<path fill-rule="evenodd" clip-rule="evenodd" d="M0 11.2156C0 10.6633 0.447715 10.2156 1 10.2156H21C21.5523 10.2156 22 10.6633 22 11.2156C22 11.7679 21.5523 12.2156 21 12.2156H1C0.447715 12.2156 0 11.7679 0 11.2156Z" fill="#111113"/>
<path fill-rule="evenodd" clip-rule="evenodd" d="M8.00023 11.2156C8.06877 14.2904 9.12625 17.2507 11 19.6648C12.8737 17.2507 13.9312 14.2904 13.9998 11.2156C13.9312 8.14073 12.8737 5.18042 11 2.76637C9.12626 5.18042 8.06877 8.14073 8.00023 11.2156ZM11 1.21558L10.2617 0.541153C7.59689 3.45848 6.08251 7.24443 6.00022 11.1947C5.99993 11.2086 5.99993 11.2225 6.00022 11.2364C6.08251 15.1867 7.59689 18.9727 10.2617 21.89C10.4511 22.0974 10.7191 22.2156 11 22.2156C11.2809 22.2156 11.5489 22.0974 11.7383 21.89C14.4031 18.9727 15.9175 15.1867 15.9998 11.2364C16.0001 11.2225 16.0001 11.2086 15.9998 11.1947C15.9175 7.24443 14.4031 3.45848 11.7383 0.541153L11 1.21558Z" fill="#111113"/>
</svg>
