<svg width="32" height="33" viewBox="0 0 32 33" fill="none" xmlns="http://www.w3.org/2000/svg">
<mask id="mask0_2328:1102" style="mask-type:alpha" maskUnits="userSpaceOnUse" x="5" y="7" width="20" height="20">
<path fill-rule="evenodd" clip-rule="evenodd" d="M19.5057 7.36853H10.9182C8.00196 7.36853 5.62939 9.74121 5.62939 12.6575V21.2449C5.62939 24.1613 8.00196 26.5338 10.9182 26.5338H19.5057C22.4221 26.5338 24.7947 24.1612 24.7947 21.2449V12.6575C24.7948 9.74121 22.4221 7.36853 19.5057 7.36853ZM23.0955 21.2446C23.0955 23.2233 21.4856 24.8331 19.5069 24.8331H10.9193C8.94068 24.8332 7.33093 23.2233 7.33093 21.2446V12.6571C7.33093 10.6785 8.94068 9.06866 10.9193 9.06866H19.5068C21.4855 9.06866 23.0954 10.6785 23.0954 12.6571V21.2446H23.0955ZM10.1929 16.951C10.1929 14.1831 12.4446 11.9314 15.2123 11.9314C17.9801 11.9314 20.2318 14.1831 20.2318 16.951C20.2318 19.7187 17.9801 21.9704 15.2123 21.9704C12.4446 21.9704 10.1929 19.7187 10.1929 16.951ZM15.2124 20.2436C13.3978 20.2436 11.9213 18.7673 11.9213 16.9526C11.9213 15.1378 13.3977 13.6614 15.2124 13.6614C17.0272 13.6614 18.5036 15.1378 18.5036 16.9526C18.5036 18.7673 17.0271 20.2436 15.2124 20.2436Z" fill="white"/>
</mask>
<g mask="url(#mask0_2328:1102)">
<rect x="3.5" y="5.23975" width="23.4243" height="23.4243" fill="#393939"/>
</g>
</svg>
