<svg width="32" height="33" viewBox="0 0 32 33" fill="none" xmlns="http://www.w3.org/2000/svg">
<path d="M17.4986 24.741V17.4431H19.995L20.3695 14.5982H17.4986V12.7821C17.4986 11.9587 17.7308 11.3976 18.936 11.3976L20.4706 11.397V8.85235C20.2052 8.81852 19.2942 8.74097 18.2339 8.74097C16.0198 8.74097 14.504 10.0665 14.504 12.5004V14.5982H12V17.4431H14.504V24.741H17.4986Z" fill="#393939"/>
<mask id="mask0_2328:1097" style="mask-type:alpha" maskUnits="userSpaceOnUse" x="12" y="8" width="9" height="17">
<path d="M17.4986 24.741V17.4431H19.995L20.3695 14.5982H17.4986V12.7821C17.4986 11.9587 17.7308 11.3976 18.936 11.3976L20.4706 11.397V8.85235C20.2052 8.81852 19.2942 8.74097 18.2339 8.74097C16.0198 8.74097 14.504 10.0665 14.504 12.5004V14.5982H12V17.4431H14.504V24.741H17.4986Z" fill="white"/>
</mask>
<g mask="url(#mask0_2328:1097)">
<rect x="5" y="5.74097" width="22" height="22" fill="#393939"/>
</g>
</svg>
