<svg width="32" height="33" viewBox="0 0 32 33" fill="none" xmlns="http://www.w3.org/2000/svg">
<path d="M0 16.4312C0 7.5946 7.16344 0.431152 16 0.431152C24.8366 0.431152 32 7.5946 32 16.4312C32 25.2677 24.8366 32.4312 16 32.4312C7.16344 32.4312 0 25.2677 0 16.4312Z" fill="white"/>
<path fill-rule="evenodd" clip-rule="evenodd" d="M18.4716 11.9597C18.7319 12.2201 18.7319 12.6422 18.4716 12.9026L14.943 16.4311L18.4716 19.9597C18.7319 20.2201 18.7319 20.6422 18.4716 20.9026C18.2112 21.1629 17.7891 21.1629 17.5288 20.9026L13.5288 16.9026C13.2684 16.6422 13.2684 16.2201 13.5288 15.9597L17.5288 11.9597C17.7891 11.6994 18.2112 11.6994 18.4716 11.9597Z" fill="black"/>
<path d="M16 31.4312C7.71573 31.4312 1 24.7154 1 16.4312H-1C-1 25.82 6.61116 33.4312 16 33.4312V31.4312ZM31 16.4312C31 24.7154 24.2843 31.4312 16 31.4312V33.4312C25.3888 33.4312 33 25.82 33 16.4312H31ZM16 1.43115C24.2843 1.43115 31 8.14688 31 16.4312H33C33 7.04231 25.3888 -0.568848 16 -0.568848V1.43115ZM16 -0.568848C6.61116 -0.568848 -1 7.04231 -1 16.4312H1C1 8.14688 7.71573 1.43115 16 1.43115V-0.568848Z" fill="#E5E5E5"/>
</svg>
