<svg width="32" height="33" viewBox="0 0 32 33" fill="none" xmlns="http://www.w3.org/2000/svg">
<path d="M32 16.4312C32 7.5946 24.8366 0.431152 16 0.431152C7.16344 0.431152 0 7.5946 0 16.4312C0 25.2677 7.16344 32.4312 16 32.4312C24.8366 32.4312 32 25.2677 32 16.4312Z" fill="white"/>
<path fill-rule="evenodd" clip-rule="evenodd" d="M13.5284 11.9597C13.2681 12.2201 13.2681 12.6422 13.5284 12.9026L17.057 16.4311L13.5284 19.9597C13.2681 20.2201 13.2681 20.6422 13.5284 20.9026C13.7888 21.1629 14.2109 21.1629 14.4712 20.9026L18.4712 16.9026C18.7316 16.6422 18.7316 16.2201 18.4712 15.9597L14.4712 11.9597C14.2109 11.6994 13.7888 11.6994 13.5284 11.9597Z" fill="black"/>
<path d="M16 31.4312C24.2843 31.4312 31 24.7154 31 16.4312H33C33 25.82 25.3888 33.4312 16 33.4312V31.4312ZM1 16.4312C1 24.7154 7.71573 31.4312 16 31.4312V33.4312C6.61116 33.4312 -1 25.82 -1 16.4312H1ZM16 1.43115C7.71573 1.43115 1 8.14688 1 16.4312H-1C-1 7.04231 6.61116 -0.568848 16 -0.568848V1.43115ZM16 -0.568848C25.3888 -0.568848 33 7.04231 33 16.4312H31C31 8.14688 24.2843 1.43115 16 1.43115V-0.568848Z" fill="#E5E5E5"/>
</svg>
